<svg fill="none" height="92" viewBox="0 0 92 92" width="92" xmlns="http://www.w3.org/2000/svg" xmlns:xlink="http://www.w3.org/1999/xlink"><linearGradient id="a" gradientUnits="userSpaceOnUse" x1="45.7809" x2="45.7809" y1="0" y2="91.5618"><stop offset="0" stop-color="#fb5971"/><stop offset="1" stop-color="#fa253d"/></linearGradient><rect fill="url(#a)" height="91.5618" rx="20" width="91.5618"/><path clip-rule="evenodd" d="m38.85 42.9091c7.8659-2.7136 9.2048-9.7825 8.2006-16.2818 0-.2346.2008-.4021.4017-.3351 7.5312 3.6852 15.9996 11.7257 15.9996 23.7863 0 9.2465-7.163 17.421-17.5728 17.421-3.7145.169-7.3795-.9048-10.4165-3.0522-3.0371-2.1473-5.2731-5.2457-6.3553-8.8063-1.0822-3.5605-.9489-7.3804.3789-10.8567s3.7744-6.4111 6.9538-8.341c.2008-.134.4686 0 .4686.2345.1004 1.2396.4351 4.3552 1.8075 6.2313z" fill="#fff" fill-rule="evenodd"/></svg>