<svg width="24" height="24" viewBox="0 0 24 24" fill="none" xmlns="http://www.w3.org/2000/svg">
<path d="M22.5415 6.41053C22.2895 5.46316 21.5441 4.71579 20.5956 4.45965C18.8807 4 12 4 12 4C12 4 5.12281 4 3.40439 4.45965C2.45943 4.71228 1.71397 5.45965 1.45848 6.41053C1 8.12982 1 11.7193 1 11.7193C1 11.7193 1 15.3088 1.45848 17.0281C1.71047 17.9754 2.45593 18.7228 3.40439 18.9789C5.12281 19.4386 12 19.4386 12 19.4386C12 19.4386 18.8807 19.4386 20.5956 18.9789C21.5406 18.7263 22.286 17.9789 22.5415 17.0281C23 15.3088 23 11.7193 23 11.7193C23 11.7193 23 8.12982 22.5415 6.41053Z" fill="#FF3000"/>
<path d="M9.8021 15.0281L15.5173 11.7193L9.8021 8.41053V15.0281Z" fill="white"/>
</svg>
