<svg width="81" height="24" viewBox="0 0 81 24" fill="none" xmlns="http://www.w3.org/2000/svg">
<path d="M19.7612 5.52344H14.25V11.0347H19.7612V5.52344Z" fill="#F1CA48"/>
<path d="M14.2462 11.0312H9.83153V1.91992H4.32031V22.0607H9.83153V16.546H14.2462V11.0312Z" fill="#70C6EB"/>
<path d="M19.7612 16.5498H14.25V22.061H19.7612V16.5498Z" fill="#00CBBB"/>
<path d="M81.0009 13.7352C81.0009 14.0591 80.9777 14.3136 80.9315 14.4987H73.9041C74.0544 15.0655 74.3379 15.5166 74.7543 15.8521C75.1823 16.1875 75.6913 16.3553 76.2812 16.3553C76.7555 16.3553 77.1835 16.257 77.5653 16.0603C77.9586 15.8637 78.242 15.6092 78.4155 15.2968H80.8273C80.5035 16.2107 79.9251 16.951 79.0922 17.5178C78.2709 18.0731 77.3223 18.3507 76.2465 18.3507C74.8931 18.3507 73.7595 17.9111 72.8456 17.032C71.9433 16.1413 71.4922 15.0366 71.4922 13.7178C71.4922 12.3991 71.9433 11.3002 72.8456 10.421C73.7595 9.53032 74.8931 9.08496 76.2465 9.08496C77.6 9.08496 78.7278 9.53032 79.6301 10.421C80.5439 11.3002 81.0009 12.4049 81.0009 13.7352ZM77.7041 11.5489C77.2876 11.225 76.8018 11.063 76.2465 11.063C75.6913 11.063 75.2054 11.225 74.789 11.5489C74.3726 11.8728 74.0891 12.3066 73.9388 12.8503H78.5716C78.4213 12.3066 78.1321 11.8728 77.7041 11.5489Z" fill="white"/>
<path d="M71.468 9.29268V11.3575H69.6808V18.142H67.4251V11.3575H65.7246V9.29268H67.4251V7.17579L69.6808 6.68994V9.29268H71.468Z" fill="white"/>
<path d="M65.6395 13.7352C65.6395 14.0591 65.6164 14.3136 65.5701 14.4987H58.5427C58.6931 15.0655 58.9765 15.5166 59.393 15.8521C59.821 16.1875 60.3299 16.3553 60.9199 16.3553C61.3942 16.3553 61.8222 16.257 62.2039 16.0603C62.5972 15.8637 62.8806 15.6092 63.0541 15.2968H65.466C65.1421 16.2107 64.5637 16.951 63.7309 17.5178C62.9096 18.0731 61.961 18.3507 60.8852 18.3507C59.5318 18.3507 58.3981 17.9111 57.4843 17.032C56.582 16.1413 56.1309 15.0366 56.1309 13.7178C56.1309 12.3991 56.582 11.3002 57.4843 10.421C58.3981 9.53032 59.5318 9.08496 60.8852 9.08496C62.2386 9.08496 63.3665 9.53032 64.2688 10.421C65.1826 11.3002 65.6395 12.4049 65.6395 13.7352ZM62.3427 11.5489C61.9263 11.225 61.4404 11.063 60.8852 11.063C60.3299 11.063 59.8441 11.225 59.4277 11.5489C59.0112 11.8728 58.7278 12.3066 58.5774 12.8503H63.2103C63.0599 12.3066 62.7707 11.8728 62.3427 11.5489Z" fill="white"/>
<path d="M51.7151 9.08503C52.7562 9.08503 53.5891 9.39736 54.2137 10.022C54.85 10.6467 55.1681 11.4795 55.1681 12.5206V18.1426H52.9124V13.2494C52.9124 12.6479 52.7331 12.1678 52.3745 11.8092C52.0274 11.4506 51.5647 11.2713 50.9863 11.2713C50.3617 11.2713 49.8585 11.4564 49.4767 11.8266C49.095 12.1967 48.9041 12.6826 48.9041 13.2841V18.1426H46.6484V5.64941H48.9041V10.4558C49.5866 9.54196 50.5236 9.08503 51.7151 9.08503Z" fill="white"/>
<path d="M42.7673 9.29318H45.023V18.1425H42.7673V16.9799C42.027 17.8938 41.0669 18.3507 39.887 18.3507C38.6608 18.3507 37.6312 17.9111 36.7984 17.032C35.9771 16.1413 35.5664 15.0366 35.5664 13.7178C35.5664 12.3991 35.9771 11.3002 36.7984 10.421C37.6312 9.53032 38.6608 9.08496 39.887 9.08496C41.0669 9.08496 42.027 9.54189 42.7673 10.4557V9.29318ZM40.3207 16.1644C41.0264 16.1644 41.6105 15.9331 42.0733 15.4703C42.536 14.9961 42.7673 14.4119 42.7673 13.7178C42.7673 13.0238 42.536 12.4454 42.0733 11.9827C41.6105 11.5084 41.0264 11.2713 40.3207 11.2713C39.6267 11.2713 39.0483 11.5084 38.5856 11.9827C38.1229 12.4454 37.8915 13.0238 37.8915 13.7178C37.8915 14.4119 38.1229 14.9961 38.5856 15.4703C39.0483 15.9331 39.6267 16.1644 40.3207 16.1644Z" fill="white"/>
<path d="M36.2594 18.1426H33.3963L30.2557 14.6202V18.1426H28V5.64941H30.2557V12.6768L33.2922 9.29325H36.1379L32.3379 13.6832L36.2594 18.1426Z" fill="white"/>
</svg>
