<?xml version="1.0" standalone="no"?>
<!DOCTYPE svg PUBLIC "-//W3C//DTD SVG 20010904//EN"
 "http://www.w3.org/TR/2001/REC-SVG-20010904/DTD/svg10.dtd">
<svg version="1.0" xmlns="http://www.w3.org/2000/svg"
 width="748.000000pt" height="748.000000pt" viewBox="0 0 748.000000 748.000000"
 preserveAspectRatio="xMidYMid meet">
<metadata>
Created by potrace 1.14, written by Peter Selinger 2001-2017
</metadata>
<g transform="translate(0.000000,748.000000) scale(0.100000,-0.100000)"
fill="#000000" stroke="none">
<path d="M1980 7465 c-522 -63 -991 -297 -1352 -674 -348 -363 -555 -801 -613
-1299 -22 -189 -22 -3315 0 -3504 59 -502 270 -948 619 -1307 192 -196 382
-334 621 -451 234 -115 472 -185 733 -215 189 -22 3315 -22 3504 0 502 59 948
270 1307 619 130 128 214 228 313 376 137 206 265 508 317 753 51 237 51 235
51 1977 0 1743 0 1741 -51 1977 -51 239 -175 538 -306 738 -370 565 -963 932
-1631 1010 -108 13 -375 15 -1767 14 -1261 -1 -1664 -4 -1745 -14z m1200
-2450 l0 -1105 540 0 540 0 0 575 0 575 590 0 590 0 0 -590 0 -590 -575 0
-575 0 0 -505 0 -505 575 0 575 0 0 -585 0 -585 -590 0 -590 0 0 555 0 555
-540 0 -540 0 0 -555 0 -555 -550 0 -550 0 0 2210 0 2210 550 0 550 0 0 -1105z"/>
</g>
</svg>
