<svg width="124" height="124" viewBox="0 0 124 124" fill="none" xmlns="http://www.w3.org/2000/svg">
<mask id="mask0_371_738" style="mask-type:alpha" maskUnits="userSpaceOnUse" x="0" y="0" width="124" height="124">
<rect width="124" height="124" fill="#D9D9D9"/>
</mask>
<g mask="url(#mask0_371_738)">
<path d="M92.0063 92.0063C94.1591 92.0063 95.989 91.2529 97.4959 89.7459C99.0028 88.239 99.7563 86.4091 99.7563 84.2563C99.7563 82.1036 99.0028 80.2737 97.4959 78.7668C95.989 77.2598 94.1591 76.5063 92.0063 76.5063C89.8535 76.5063 88.0237 77.2598 86.5167 78.7668C85.0098 80.2737 84.2563 82.1036 84.2563 84.2563C84.2563 86.4091 85.0098 88.239 86.5167 89.7459C88.0237 91.2529 89.8535 92.0063 92.0063 92.0063ZM92.0063 107.506C94.5897 107.506 97.0008 106.904 99.2397 105.698C101.479 104.492 103.33 102.813 104.794 100.661C102.813 99.455 100.747 98.5723 98.5938 98.0126C96.441 97.4529 94.2452 97.173 92.0063 97.173C89.7674 97.173 87.5716 97.4529 85.4188 98.0126C83.266 98.5723 81.1994 99.455 79.2188 100.661C80.6827 102.813 82.5341 104.492 84.773 105.698C87.0119 106.904 89.423 107.506 92.0063 107.506ZM46.5 43.9168H77.5V33.5835C77.5 29.2779 75.9931 25.6182 72.9792 22.6043C69.9653 19.5904 66.3055 18.0835 62 18.0835C57.6944 18.0835 54.0347 19.5904 51.0208 22.6043C48.0069 25.6182 46.5 29.2779 46.5 33.5835V43.9168ZM64.3847 111.083H32.5899C29.9801 111.083 27.771 110.179 25.9626 108.371C24.1543 106.562 23.2501 104.353 23.2501 101.743V53.2566C23.2501 50.6467 24.1543 48.4376 25.9626 46.6293C27.771 44.821 29.9801 43.9168 32.5899 43.9168H38.7501V33.5835C38.7501 27.1319 41.0122 21.644 45.5363 17.1199C50.0605 12.5958 55.5484 10.3337 62 10.3337C68.4516 10.3337 73.9395 12.5958 78.4637 17.1199C82.9878 21.644 85.2499 27.1319 85.2499 33.5835V43.9168H91.4101C94.0199 43.9168 96.229 44.821 98.0374 46.6293C99.8457 48.4376 100.75 50.6467 100.75 53.2566V59.6752C99.6304 59.2909 98.4299 59.0028 97.1482 58.8108C95.8664 58.6187 94.4837 58.5226 93 58.5226V53.2566C93 52.7929 92.8509 52.412 92.5528 52.1139C92.2547 51.8157 91.8738 51.6667 91.4101 51.6667H32.5899C32.1262 51.6667 31.7453 51.8157 31.4472 52.1139C31.1491 52.412 31 52.7929 31 53.2566V101.743C31 102.207 31.1491 102.588 31.4472 102.886C31.7453 103.184 32.1262 103.333 32.5899 103.333H60.5693C61.0595 104.87 61.5828 106.218 62.1392 107.377C62.6956 108.536 63.4441 109.772 64.3847 111.083ZM92.0063 115.256C85.5547 115.256 80.0668 112.994 75.5427 108.47C71.0186 103.946 68.7566 98.458 68.7566 92.0063C68.7566 85.5547 71.0186 80.0669 75.5427 75.5428C80.0668 71.0187 85.5547 68.7566 92.0063 68.7566C98.458 68.7566 103.946 71.0187 108.47 75.5428C112.994 80.0669 115.256 85.5547 115.256 92.0063C115.256 98.458 112.994 103.946 108.47 108.47C103.946 112.994 98.458 115.256 92.0063 115.256Z" fill="#D1D1D1"/>
</g>
</svg>
