<svg xmlns="http://www.w3.org/2000/svg" width="20" height="21" viewBox="0 0 20 21" fill="none">
  <mask id="mask0_325_5709" style="mask-type:alpha" maskUnits="userSpaceOnUse" x="0" y="0" width="20" height="21">
    <rect y="0.5" width="20" height="20" fill="#D9D9D9"/>
  </mask>
  <g mask="url(#mask0_325_5709)">
    <path d="M13.4583 11.3333H4.16659C3.93047 11.3333 3.73256 11.2535 3.57284 11.0938C3.41311 10.934 3.33325 10.7361 3.33325 10.5C3.33325 10.2639 3.41311 10.066 3.57284 9.90625C3.73256 9.74653 3.93047 9.66667 4.16659 9.66667H13.4583L11.0833 7.29167C10.9166 7.125 10.8367 6.93056 10.8437 6.70833C10.8506 6.48611 10.9305 6.29167 11.0833 6.125C11.2499 5.95833 11.4478 5.87153 11.677 5.86458C11.9062 5.85764 12.1041 5.9375 12.2708 6.10417L16.0833 9.91667C16.1666 10 16.2256 10.0903 16.2603 10.1875C16.2951 10.2847 16.3124 10.3889 16.3124 10.5C16.3124 10.6111 16.2951 10.7153 16.2603 10.8125C16.2256 10.9097 16.1666 11 16.0833 11.0833L12.2708 14.8958C12.1041 15.0625 11.9062 15.1424 11.677 15.1354C11.4478 15.1285 11.2499 15.0417 11.0833 14.875C10.9305 14.7083 10.8506 14.5139 10.8437 14.2917C10.8367 14.0694 10.9166 13.875 11.0833 13.7083L13.4583 11.3333Z" fill="#14191C"/>
  </g>
</svg>