<svg width="21" height="20" viewBox="0 0 21 20" fill="none" xmlns="http://www.w3.org/2000/svg">
<path d="M10.7003 1C6.30933 1 2.7352 4.77876 2.73334 9.42318C2.73288 10.9078 3.09983 12.357 3.79697 13.6343L2.66675 18L6.89004 16.8286C8.05379 17.4997 9.36376 17.8533 10.697 17.8538H10.7003C15.0908 17.8538 18.6649 14.0745 18.6667 9.43008C18.6677 7.17927 17.8397 5.06288 16.3355 3.47092C14.8314 1.87846 12.8313 1.00098 10.7003 1ZM10.7003 16.4312H10.6975C9.50952 16.4312 8.34391 16.0929 7.32732 15.4552L7.08563 15.3036L4.57978 15.9988L5.2485 13.4152L5.0911 13.1502C4.42843 12.0354 4.07824 10.7468 4.0787 9.42417C4.0801 5.56367 7.05071 2.42307 10.7031 2.42307C12.4717 2.42356 14.1342 3.15282 15.3841 4.47642C16.6345 5.79953 17.3223 7.55892 17.3219 9.42959C17.3205 13.2901 14.3498 16.4312 10.7003 16.4312ZM14.3322 11.1875C14.1333 11.0821 13.1544 10.573 12.9719 10.5025C12.7893 10.4321 12.6566 10.3972 12.5239 10.6079C12.3912 10.8187 12.0098 11.2929 11.8938 11.4332C11.7779 11.574 11.6615 11.5913 11.4626 11.4859C11.2638 11.3805 10.622 11.1579 9.86204 10.441C9.27016 9.8831 8.8706 9.19372 8.75465 8.98297C8.63869 8.77222 8.74207 8.65847 8.84219 8.55359C8.93161 8.45954 9.04104 8.30787 9.1407 8.18477C9.24036 8.06167 9.27342 7.97402 9.33955 7.83319C9.40567 7.69285 9.37261 7.56975 9.32278 7.46437C9.27295 7.359 8.87479 6.32296 8.70901 5.90146C8.54742 5.49128 8.38349 5.54643 8.26102 5.54003C8.14506 5.53363 8.01234 5.53264 7.87962 5.53264C7.7469 5.53264 7.53129 5.58533 7.34874 5.79608C7.16619 6.00684 6.65208 6.51599 6.65208 7.55202C6.65208 8.58805 7.36551 9.58913 7.4647 9.72946C7.56436 9.8698 8.86827 11.996 10.8651 12.9075C11.3401 13.1241 11.7108 13.2536 12 13.3507C12.4769 13.5107 12.9109 13.488 13.2536 13.4339C13.636 13.3733 14.4313 12.9247 14.5971 12.4328C14.7629 11.9414 14.7629 11.5199 14.7131 11.4317C14.6633 11.3441 14.5305 11.2914 14.3317 11.186L14.3322 11.1875Z" fill="white"/>
</svg>
