<svg width="21" height="20" viewBox="0 0 21 20" fill="none" xmlns="http://www.w3.org/2000/svg">
<mask id="mask0_153_259" style="mask-type:alpha" maskUnits="userSpaceOnUse" x="0" y="0" width="21" height="20">
<rect x="0.333374" width="20" height="20" fill="#D9D9D9"/>
</mask>
<g mask="url(#mask0_153_259)">
<path d="M16.9584 17.5C15.2223 17.5 13.507 17.1215 11.8125 16.3646C10.1181 15.6076 8.57643 14.5347 7.18754 13.1458C5.79865 11.7569 4.72574 10.2153 3.96879 8.52083C3.21185 6.82639 2.83337 5.11111 2.83337 3.375C2.83337 3.125 2.91671 2.91667 3.08337 2.75C3.25004 2.58333 3.45837 2.5 3.70837 2.5H7.08337C7.27782 2.5 7.45143 2.56597 7.60421 2.69792C7.75698 2.82986 7.84726 2.98611 7.87504 3.16667L8.41671 6.08333C8.44449 6.30556 8.43754 6.49306 8.39587 6.64583C8.35421 6.79861 8.27782 6.93056 8.16671 7.04167L6.14587 9.08333C6.42365 9.59722 6.75351 10.0938 7.13546 10.5729C7.5174 11.0521 7.93754 11.5139 8.39587 11.9583C8.82643 12.3889 9.27782 12.7882 9.75004 13.1562C10.2223 13.5243 10.7223 13.8611 11.25 14.1667L13.2084 12.2083C13.3334 12.0833 13.4966 11.9896 13.698 11.9271C13.8993 11.8646 14.0973 11.8472 14.2917 11.875L17.1667 12.4583C17.3612 12.5139 17.5209 12.6146 17.6459 12.7604C17.7709 12.9062 17.8334 13.0694 17.8334 13.25V16.625C17.8334 16.875 17.75 17.0833 17.5834 17.25C17.4167 17.4167 17.2084 17.5 16.9584 17.5Z" fill="white"/>
</g>
</svg>
