<svg width="24" height="24" viewBox="0 0 24 24" fill="none" xmlns="http://www.w3.org/2000/svg">
<path d="M3.21024 2.44C2.78452 2.44 2.44 2.78452 2.44 3.21024V11.72C2.44 16.8466 6.59338 21 11.72 21C16.8466 21 21 16.8466 21 11.72C21 6.59338 16.8466 2.44 11.72 2.44H3.21024ZM11.847 5.21008C15.4053 5.24314 18.2636 8.15532 18.2328 11.7142C18.1963 15.2725 15.2847 18.1273 11.7287 18.0942C8.17272 18.0611 5.31216 15.149 5.3458 11.5936C5.37886 8.03526 8.29104 5.17702 11.8464 5.21066L11.847 5.21008ZM11.8256 6.96516C9.21846 6.94428 7.0887 9.0375 7.06492 11.6417C7.04056 14.2488 9.13436 16.3815 11.7444 16.4087C12.9948 16.418 14.2001 15.9314 15.0915 15.0556C15.9859 14.1798 16.4934 12.9832 16.5021 11.7328C16.5265 9.12566 14.4356 6.993 11.8319 6.96574L11.8256 6.96516ZM11.8076 9.29444C13.1277 9.30952 14.1879 10.3912 14.1792 11.7113C14.167 13.0314 13.0859 14.0916 11.7658 14.0765C8.57872 14.0464 8.62106 9.26718 11.8082 9.29444H11.8076Z" fill="white"/>
</svg>
